# Blender v2.79 (sub 0) OBJ File: 'arrow.blend'
# www.blender.org
mtllib arrow.mtl
o Cube
v -1.000000 -1.000000 1.000000
v -1.000000 -1.000000 -1.000000
v 1.000000 -1.000000 1.000000
v 1.000000 -1.000000 -1.000000
v -0.535708 -0.372313 0.000000
v -0.497277 0.000000 0.497277
v -0.497277 0.000000 -0.497277
v 0.000000 -0.372313 -0.535708
v 0.497277 0.000000 -0.497277
v 0.535708 -0.372313 0.000000
v 0.497277 0.000000 0.497277
v 0.000000 -0.372313 0.535708
v 0.000000 1.000000 0.000000
v 0.000000 -0.554843 0.000000
vn 0.9315 0.3636 0.0000
vn -0.2588 -0.7595 0.5969
vn -0.0000 0.3636 0.9315
vn -0.5969 -0.7595 -0.2588
vn 0.5969 -0.7595 0.2588
vn -0.5969 -0.7595 0.2588
vn 0.1982 0.3589 0.9121
vn -0.1982 0.3589 0.9121
vn 0.9121 0.3589 -0.1982
vn 0.9121 0.3589 0.1982
vn -0.1982 0.3589 -0.9121
vn 0.1982 0.3589 -0.9121
vn -0.9121 0.3589 0.1982
vn -0.9121 0.3589 -0.1982
vn 0.5969 -0.7595 -0.2588
vn 0.2588 -0.7595 0.5969
vn -0.2588 -0.7595 -0.5969
vn 0.2588 -0.7595 -0.5969
vn 0.0000 0.3636 -0.9315
vn -0.9315 0.3636 -0.0000
usemtl None
s off
f 9//1 13//1 11//1 10//1
f 5//2 2//2 14//2
f 11//3 13//3 6//3 12//3
f 8//4 4//4 14//4
f 12//5 1//5 14//5
f 12//6 14//6 3//6
f 12//7 6//7 1//7
f 11//8 12//8 3//8
f 10//9 11//9 3//9
f 9//10 10//10 4//10
f 8//11 9//11 4//11
f 7//12 8//12 2//12
f 5//13 7//13 2//13
f 6//14 5//14 1//14
f 2//15 8//15 14//15
f 4//16 10//16 14//16
f 5//17 14//17 1//17
f 10//18 3//18 14//18
f 13//19 9//19 8//19 7//19
f 6//20 13//20 7//20 5//20
